<?xml version="1.0" encoding="UTF-8"?>
<svg version="1.1" xmlns="http://www.w3.org/2000/svg" width="200" height="200">
<path d="M0 0 C66 0 132 0 200 0 C200 66 200 132 200 200 C134 200 68 200 0 200 C0 134 0 68 0 0 Z " fill="#FEFEFE" transform="translate(0,0)"/>
<path d="M0 0 C44.55 0 89.1 0 135 0 C135 44.55 135 89.1 135 135 C116.52 135 98.04 135 79 135 C84 131 84 131 85.84375 129.6484375 C91.85976252 125.02291844 95.55587186 118.46371178 97 111 C98.11069059 101.66457533 96.2218217 94.80378676 91 87 C85.75124087 80.64018966 78.44960562 77.5130472 70.375 76.58203125 C60.99395235 76.2321333 54.08291946 77.48621051 46.9765625 83.796875 C40.91710698 90.18870572 37.82140649 96.60400562 37.5 105.4375 C37.83483497 114.70486792 40.79749288 121.54726511 47.1171875 128.3046875 C49.86924352 130.78267985 52.67953771 132.37365112 56 134 C56 134.33 56 134.66 56 135 C37.52 135 19.04 135 0 135 C0 90.45 0 45.9 0 0 Z " fill="#161616" transform="translate(32,33)"/>
</svg>
