<?xml version="1.0" encoding="UTF-8"?>
<svg version="1.1" xmlns="http://www.w3.org/2000/svg" width="225" height="225">
<path d="M0 0 C74.25 0 148.5 0 225 0 C225 74.25 225 148.5 225 225 C150.75 225 76.5 225 0 225 C0 150.75 0 76.5 0 0 Z " fill="#FEFEFE" transform="translate(0,0)"/>
<path d="M0 0 C7.26 0 14.52 0 22 0 C22 35.97 22 71.94 22 109 C14.74 109 7.48 109 0 109 C0 73.03 0 37.06 0 0 Z " fill="#06A0E3" transform="translate(56,69)"/>
<path d="M0 0 C6.93 0 13.86 0 21 0 C21 29.04 21 58.08 21 88 C14.07 88 7.14 88 0 88 C0 58.96 0 29.92 0 0 Z " fill="#C7D302" transform="translate(85,70)"/>
<path d="M0 0 C6.93 0 13.86 0 21 0 C21 19.47 21 38.94 21 59 C14.07 59 7.14 59 0 59 C0 39.53 0 20.06 0 0 Z " fill="#EF7D13" transform="translate(113,70)"/>
<path d="M0 0 C0.95769791 -0.00426498 1.91539581 -0.00852997 2.90211487 -0.01292419 C4.49098511 -0.01224442 4.49098511 -0.01224442 6.11195374 -0.0115509 C7.22079422 -0.01490952 8.3296347 -0.01826813 9.47207642 -0.02172852 C13.1581177 -0.03127134 16.84411373 -0.03318327 20.53016663 -0.03425598 C23.07985453 -0.03746617 25.62954224 -0.04083006 28.17922974 -0.04434204 C33.53180951 -0.05034161 38.88437225 -0.05222375 44.23695374 -0.05158997 C50.43028111 -0.05098902 56.62352142 -0.06154248 62.81682676 -0.07733363 C68.76647306 -0.09196505 74.71609266 -0.09557859 80.66575813 -0.09498024 C83.20120665 -0.09616446 85.73665573 -0.10061076 88.27209282 -0.10831261 C91.81123554 -0.11805661 95.35015149 -0.11525665 98.88929749 -0.10920715 C99.94652008 -0.11482666 101.00374268 -0.12044617 102.09300232 -0.12623596 C103.53377892 -0.11994423 103.53377892 -0.11994423 105.00366211 -0.11352539 C105.84119491 -0.11407016 106.6787277 -0.11461493 107.54164028 -0.1151762 C109.56532288 0.13371277 109.56532288 0.13371277 111.56532288 2.13371277 C111.87782288 5.13371277 111.87782288 5.13371277 111.56532288 8.13371277 C108.38711055 10.25252099 107.6109202 10.38529296 103.97279358 10.39440918 C103.03061981 10.40149399 102.08844604 10.4085788 101.11772156 10.4158783 C99.57004593 10.41216217 99.57004593 10.41216217 97.99110413 10.40837097 C96.35907547 10.41603737 96.35907547 10.41603737 94.69407654 10.42385864 C91.08860309 10.43778747 87.48332007 10.43679554 83.87782288 10.43449402 C81.37822905 10.4383788 78.87863588 10.44271302 76.37904358 10.44747925 C71.13675814 10.4549483 65.89452224 10.45478274 60.65223694 10.4493866 C54.59061824 10.44334311 48.52923145 10.45566695 42.46765232 10.47695667 C36.63758854 10.49668107 30.80761585 10.49974841 24.9775238 10.49622154 C22.49593053 10.49673621 20.01433367 10.50200097 17.53276062 10.51203346 C14.06817059 10.52432161 10.60412249 10.51765204 7.13954163 10.50602722 C6.10775787 10.51367096 5.07597412 10.5213147 4.01292419 10.52919006 C3.07075043 10.52217575 2.12857666 10.51516144 1.15785217 10.50793457 C-0.07104485 10.50818618 -0.07104485 10.50818618 -1.32476807 10.50844288 C-3.96434304 10.03964153 -4.88400136 9.29901862 -6.43467712 7.13371277 C-5.9728485 1.360855 -5.70034905 0.01141113 0 0 Z " fill="#686868" transform="translate(56.43467712402344,53.86628723144531)"/>
<path d="M0 0 C6.93 0 13.86 0 21 0 C21 11.88 21 23.76 21 36 C14.07 36 7.14 36 0 36 C0 24.12 0 12.24 0 0 Z " fill="#DE2311" transform="translate(141,70)"/>
<path d="M0 0 C7.26 0 14.52 0 22 0 C22 1.65 22 3.3 22 5 C14.74 5 7.48 5 0 5 C0 3.35 0 1.7 0 0 Z " fill="#15A2E4" transform="translate(56,43)"/>
<path d="M0 0 C7.26 0 14.52 0 22 0 C22 1.65 22 3.3 22 5 C14.74 5 7.48 5 0 5 C0 3.35 0 1.7 0 0 Z " fill="#E02C1F" transform="translate(140,43)"/>
<path d="M0 0 C6.93 0 13.86 0 21 0 C21 1.65 21 3.3 21 5 C14.07 5 7.14 5 0 5 C0 3.35 0 1.7 0 0 Z " fill="#F0811B" transform="translate(113,43)"/>
<path d="M0 0 C6.93 0 13.86 0 21 0 C21 1.65 21 3.3 21 5 C14.07 5 7.14 5 0 5 C0 3.35 0 1.7 0 0 Z " fill="#C9D412" transform="translate(85,43)"/>
</svg>
