<?xml version="1.0" encoding="UTF-8"?>
<svg version="1.1" xmlns="http://www.w3.org/2000/svg" width="800" height="800">
<path d="M0 0 C8.44208113 -0.07015668 16.88403624 -0.12313894 25.32633877 -0.15543652 C29.24834582 -0.17095402 33.17015042 -0.1919303 37.09204102 -0.22631836 C40.89167775 -0.25941799 44.6911224 -0.27695693 48.49089241 -0.28463173 C49.92544636 -0.29008615 51.35999232 -0.30073017 52.7944622 -0.31719017 C82.67590372 -0.64577308 109.07102237 9.17174218 130.6875 30.1875 C146.70694318 46.30397334 157.06754864 69.21796307 157.14717102 92.06098938 C157.15084771 92.74832521 157.1545244 93.43566104 157.1583125 94.14382523 C157.16927852 96.4348398 157.17318115 98.7258089 157.17700195 101.0168457 C157.18327228 102.6650049 157.18991958 104.31316269 157.19691467 105.96131897 C157.2179011 111.36612983 157.22831642 116.77094077 157.23828125 122.17578125 C157.24233173 124.04327089 157.24644874 125.91076039 157.25063133 127.77824974 C157.26967619 136.55990651 157.28390508 145.34155494 157.2922433 154.12322837 C157.30199392 164.22311796 157.32825938 174.32278712 157.36874419 184.42259914 C157.39903593 192.25137292 157.41372474 200.08008403 157.41702431 207.90891522 C157.41936117 212.57360109 157.42814112 217.23805132 157.45348549 221.90267372 C157.47699902 226.30145724 157.48090742 230.69985391 157.47072411 235.09868431 C157.47023413 236.69928154 157.47639238 238.29989935 157.49028015 239.9004364 C157.62290155 256.11293812 154.67505464 270.53975212 147 285 C146.23042969 286.50820313 146.23042969 286.50820313 145.4453125 288.046875 C141.07224113 296.12345658 135.44827846 302.56722221 129 309 C128.13375 309.87785156 127.2675 310.75570313 126.375 311.66015625 C107.43106393 329.8993328 82.25011368 338.19750998 56.24328613 338.12025452 C55.18289423 338.12110894 54.12250232 338.12196337 53.02997732 338.12284368 C49.48936854 338.12448616 45.94880751 338.11899731 42.40820312 338.11352539 C39.86518352 338.11324323 37.32216384 338.11340182 34.77914429 338.1139679 C29.3106272 338.11419535 23.84212539 338.11136541 18.37361145 338.10573006 C10.46715357 338.09758771 2.56070145 338.09499703 -5.34576017 338.09374207 C-18.17484599 338.09155584 -31.00392545 338.08490741 -43.83300781 338.07543945 C-56.29199186 338.06625422 -68.75097418 338.05917882 -81.20996094 338.05493164 C-81.97850401 338.05466892 -82.74704708 338.05440619 -83.53887933 338.05413551 C-87.39460463 338.05283043 -91.25032994 338.05156673 -95.10605526 338.05032361 C-127.07070818 338.03996437 -159.0353531 338.02228317 -191 338 C-191 343.94 -191 349.88 -191 356 C-133.91 356 -76.82 356 -18 356 C-18 460.81742739 -18 460.81742739 -46.875 491.25 C-67.6964397 510.99303844 -93.13056006 519.31011833 -121.41064453 519.29052734 C-123.14821152 519.2965223 -124.88577587 519.30333005 -126.62333679 519.31088257 C-131.31584039 519.32845357 -136.00827091 519.33323424 -140.70080423 519.33451414 C-143.64130175 519.33594162 -146.58178105 519.34022252 -149.52227402 519.34550858 C-159.80587684 519.36398104 -170.08942801 519.37218288 -180.37304688 519.37060547 C-189.9177624 519.36940558 -199.46225126 519.39048526 -209.00690949 519.4220928 C-217.23494044 519.44835694 -225.46289782 519.4589685 -233.6909703 519.45769465 C-238.59030705 519.45718789 -243.48944221 519.46271096 -248.38873672 519.48405075 C-253.00346238 519.50360437 -257.61779772 519.5034423 -262.23253822 519.48901749 C-263.91214769 519.48694917 -265.59178272 519.49151 -267.27134895 519.5037384 C-294.04025811 519.68578267 -319.15235632 510.34692238 -338.68676758 491.66723633 C-359.68763078 470.94844 -367.91063252 445.09999341 -368.14044189 416.05253601 C-368.15599032 413.06194716 -368.15916006 410.07143465 -368.16113281 407.08081055 C-368.1657733 405.42014458 -368.17079957 403.75947966 -368.17617798 402.09881592 C-368.18918086 397.62551396 -368.19572235 393.15222692 -368.20018864 388.67890906 C-368.20313757 385.87476708 -368.2072455 383.07062901 -368.21169281 380.26648903 C-368.22533245 371.4651001 -368.23501774 362.66372031 -368.2388947 353.86232156 C-368.24337448 343.75291257 -368.26093364 333.64363884 -368.2898953 323.53427094 C-368.31159579 315.68329019 -368.32160334 307.83234728 -368.32293582 299.98133689 C-368.32397736 295.30844979 -368.3297458 290.63569045 -368.34775543 285.96283531 C-368.36438309 281.56400834 -368.36632137 277.16540323 -368.35761642 272.76655579 C-368.35685399 271.16553968 -368.36108196 269.56451088 -368.37107468 267.96352577 C-368.51847237 242.84702264 -362.07376447 221.12759447 -344.52734375 202.44140625 C-328.2349014 186.70295731 -307.41860432 177.84353644 -284.62168884 177.85523987 C-283.80479177 177.85171302 -282.98789469 177.84818618 -282.14624316 177.84455246 C-279.42292902 177.83392184 -276.69964995 177.83019429 -273.97631836 177.82641602 C-272.01772923 177.82010618 -270.05914153 177.8133399 -268.10055542 177.80615234 C-263.88818091 177.79150928 -259.67581183 177.77977345 -255.46342278 177.77020454 C-248.79261075 177.75471066 -242.12184556 177.7307599 -235.45106506 177.70530701 C-216.48343879 177.63421964 -197.51578566 177.57441936 -178.5480957 177.52319336 C-168.06808879 177.49481527 -157.5881285 177.45939306 -147.10817057 177.41653961 C-140.48781165 177.38988865 -133.86750541 177.37190889 -127.24710357 177.36050236 C-123.11208336 177.35132141 -118.97712667 177.33393388 -114.84214401 177.31432343 C-112.93714849 177.30690351 -111.03213661 177.30277025 -109.12712669 177.30232811 C-81.12840982 177.29059125 -55.52648266 171.98430757 -34 153 C-33.41605469 152.55785156 -32.83210938 152.11570312 -32.23046875 151.66015625 C-14.90924073 138.31429204 -4.56929055 114.67293007 -1.69477272 93.54923916 C-0.58418285 84.56483613 -0.6421722 75.54366228 -0.5859375 66.50390625 C-0.56718115 64.57477533 -0.54760459 62.64565222 -0.5272522 60.71653748 C-0.47639614 55.69111792 -0.43652455 50.6656719 -0.39910889 45.64013672 C-0.35877391 40.49114692 -0.3078177 35.34226274 -0.2578125 30.19335938 C-0.16160577 20.12898095 -0.07702811 10.06454223 0 0 Z M-122.25 413.3125 C-129.07632616 421.91068677 -130.11670453 430.12376318 -129 441 C-127.13053283 449.58786483 -121.89970205 456.81130502 -114.5390625 461.6015625 C-105.67284158 466.26655874 -96.92249222 468.50477645 -87.0625 465.75 C-82.4352843 464.26900753 -78.27581183 462.29626932 -74 460 C-74 459.34 -74 458.68 -74 458 C-73.40445313 457.75765625 -72.80890625 457.5153125 -72.1953125 457.265625 C-69.57832393 455.75689849 -68.51384056 454.27261321 -66.875 451.75 C-66.37742187 451.00234375 -65.87984375 450.2546875 -65.3671875 449.484375 C-61.06394818 441.6647744 -60.67753487 432.78083559 -62.65234375 424.1484375 C-66.117151 414.54214787 -73.06357505 407.72464902 -82 403 C-96.67343615 396.93225702 -111.91898185 402.18082794 -122.25 413.3125 Z " fill="#FBCF21" transform="translate(593,231)"/>
<path d="M0 0 C0.72212095 -0.00297112 1.4442419 -0.00594224 2.1882453 -0.0090034 C4.59682226 -0.01764277 7.00534923 -0.01919462 9.41394043 -0.02069092 C11.14578354 -0.02532261 12.87762563 -0.03034774 14.60946655 -0.03573608 C19.30824815 -0.04883164 24.00701547 -0.05529994 28.70581245 -0.05974674 C31.64642146 -0.06268316 34.58702661 -0.06678913 37.52763367 -0.07125092 C46.7423089 -0.08492078 55.95697528 -0.09458891 65.17165995 -0.09845281 C75.78149103 -0.10292696 86.39119286 -0.12044713 97.00098467 -0.1494534 C105.21866887 -0.17113371 113.43631689 -0.18116053 121.65402937 -0.18249393 C126.55387315 -0.18353777 131.45359534 -0.18935512 136.35340881 -0.20731354 C140.9696393 -0.22390346 145.58565827 -0.22589724 150.20190811 -0.21717453 C151.88599849 -0.21640986 153.57010075 -0.22067063 155.25416183 -0.23063278 C181.88262011 -0.37877625 205.68970604 8.24565028 225.6151123 26.14044189 C226.32151855 26.76434814 227.0279248 27.38825439 227.7557373 28.03106689 C243.81608249 43.07973679 253.45101638 64.9487152 255.73565674 86.64227295 C255.81906555 87.41969707 255.90247436 88.19712119 255.98841071 88.99810362 C256.784817 96.95819156 256.89760183 104.86820645 256.87390137 112.86114502 C256.87662225 114.44048726 256.88018924 116.01982823 256.88452148 117.59916687 C256.89351756 121.82854609 256.89015498 126.05782604 256.88376331 130.28720665 C256.87863611 134.75102343 256.88341316 139.21483272 256.88653564 143.6786499 C256.89015597 151.16934711 256.88542734 158.66000464 256.87585449 166.1506958 C256.86497371 174.76332609 256.86850066 183.37586163 256.8795073 191.98848963 C256.88863568 199.43451567 256.88983853 206.88051349 256.88462996 214.32654333 C256.88154056 218.75122469 256.88101614 223.17586179 256.88770294 227.60054016 C256.89355733 231.76385409 256.88933467 235.92704799 256.87791443 240.0903492 C256.87531046 241.6018307 256.87595796 243.11332263 256.88043976 244.62479973 C256.90214062 252.69902914 256.59446707 260.65640261 255.73956299 268.68939209 C255.66418627 269.41690406 255.58880955 270.14441604 255.51114869 270.89397383 C253.07652544 291.73010021 241.35756034 309.70800028 225.6151123 323.14044189 C206.66768116 337.94828983 185.3490177 341.60461585 161.89855957 341.54107666 C159.96173685 341.54683243 158.02491771 341.55392058 156.08810425 341.56222534 C151.94677469 341.57723724 147.8055732 341.58312148 143.664217 341.58169746 C137.10138542 341.57964788 130.53872358 341.59933683 123.97593689 341.62187195 C111.22543033 341.66269899 98.4749376 341.6814123 85.72438049 341.69804382 C69.49889591 341.72045115 53.27345129 341.75417053 37.04803127 341.80524296 C30.53859686 341.82503399 24.02925217 341.8347358 17.51978886 341.83619511 C13.45461004 341.83896663 9.38947994 341.84984242 5.32432175 341.86270523 C3.45563018 341.86694509 1.58692732 341.86787225 -0.28176689 341.86503029 C-14.34576977 341.84611271 -28.59865253 342.11839223 -42.1348877 346.39044189 C-42.83968262 346.60732666 -43.54447754 346.82421143 -44.27062988 347.04766846 C-67.5510749 354.496987 -88.07471162 371.45772092 -99.3848877 393.14044189 C-106.57119348 407.76603672 -110.47435874 421.9494953 -110.59020996 438.31036377 C-110.60010956 439.18935333 -110.61000916 440.0683429 -110.62020874 440.97396851 C-110.65156075 443.85234978 -110.67647612 446.73074751 -110.70129395 449.60919189 C-110.72188624 451.61558437 -110.74288328 453.62197273 -110.76426697 455.62835693 C-110.81925275 460.88898366 -110.86876489 466.14964801 -110.91711426 471.41033936 C-110.96750166 476.7865531 -111.02309742 482.16271276 -111.07824707 487.53887939 C-111.18554095 498.07268726 -111.28704888 508.60654226 -111.3848877 519.14044189 C-119.90551631 519.2341686 -128.42592057 519.30471651 -136.94694138 519.34769058 C-140.90593753 519.36834228 -144.86457466 519.39623468 -148.82336426 519.44219971 C-183.4268349 519.83328519 -214.74194205 515.57818119 -240.83459473 490.67120361 C-258.78924461 472.94275404 -268.51954097 449.8907899 -268.71940613 424.7297821 C-268.72495894 423.25192333 -268.73030804 421.77406379 -268.73547363 420.29620361 C-268.74806877 418.71479143 -268.76148378 417.13338559 -268.77565002 415.55198669 C-268.81132337 411.28100648 -268.83481915 407.01004167 -268.8554678 402.73896551 C-268.87397437 399.15858309 -268.89869375 395.57825452 -268.92343831 391.99791062 C-268.98186929 383.53992448 -269.03061373 375.08192169 -269.07287598 366.62384033 C-269.11641788 357.93627931 -269.17449592 349.24890523 -269.24012351 340.56148517 C-269.2962838 333.07153831 -269.34415834 325.58157018 -269.3853724 318.09152615 C-269.40993631 313.63210736 -269.43728964 309.17275586 -269.47228241 304.71340561 C-269.50481344 300.51250421 -269.52684103 296.31166752 -269.54128838 292.11066628 C-269.54817831 290.58220324 -269.55851082 289.05375053 -269.57283974 287.52533913 C-269.69294421 274.31231994 -269.2849107 260.71413971 -264.8223877 248.14044189 C-264.56481689 247.39898926 -264.30724609 246.65753662 -264.04187012 245.89361572 C-259.12918239 232.4113198 -251.55399896 220.29217006 -241.3848877 210.14044189 C-240.7248877 210.14044189 -240.0648877 210.14044189 -239.3848877 210.14044189 C-239.0548877 209.15044189 -238.7248877 208.16044189 -238.3848877 207.14044189 C-225.2165758 194.98170058 -208.8289378 186.91401671 -191.3848877 183.14044189 C-190.59684407 182.96735567 -189.80880045 182.79426945 -188.99687672 182.61593819 C-177.16997779 180.42158219 -165.20688312 180.87606871 -153.22546387 180.91339111 C-150.68170679 180.91395592 -148.13794939 180.91363732 -145.5941925 180.9125061 C-140.13938653 180.91205242 -134.68464216 180.91768113 -129.22984886 180.92898178 C-121.34336897 180.94530941 -113.45691216 180.95045218 -105.5704172 180.95295776 C-92.77182582 180.95732354 -79.97326009 180.97060214 -67.17468262 180.98956299 C-54.74987923 181.00795083 -42.32508283 181.02209308 -29.90026855 181.03057861 C-29.1330391 181.03110406 -28.36580965 181.03162951 -27.57533082 181.03217088 C-23.72595872 181.03478115 -19.87658658 181.03730852 -16.02721441 181.03979468 C15.85357997 181.06049234 47.73434213 181.09583702 79.6151123 181.14044189 C79.6151123 175.20044189 79.6151123 169.26044189 79.6151123 163.14044189 C22.5251123 163.14044189 -34.5648877 163.14044189 -93.3848877 163.14044189 C-93.3848877 59.14214547 -93.3848877 59.14214547 -68.3848877 32.14044189 C-67.63852051 31.30255127 -66.89215332 30.46466064 -66.12316895 29.60137939 C-49.50559249 11.85765313 -24.40435467 0.05632218 0 0 Z M-40.4317627 61.99591064 C-47.57789047 69.64593205 -49.99974691 76.83994949 -49.85559082 87.25762939 C-49.42510246 96.96651575 -45.39996752 103.59395287 -38.3848877 110.14044189 C-29.41445706 117.30090954 -20.78848195 119.25100571 -9.3848877 118.14044189 C1.08875952 115.35703428 9.42065682 109.22550453 14.94714355 99.89044189 C18.48949909 92.2800102 19.08018612 83.64681481 16.9197998 75.52716064 C15.98214657 73.24606307 14.91542463 71.2347144 13.6151123 69.14044189 C12.97895996 68.09436768 12.97895996 68.09436768 12.32995605 67.02716064 C7.76844515 60.28019047 1.31746078 55.74243106 -6.3848877 53.14044189 C-19.65064348 51.00967283 -30.26661765 52.78132305 -40.4317627 61.99591064 Z " fill="#2472B3" transform="translate(318.3848876953125,49.85955810546875)"/>
</svg>
