<?xml version="1.0" encoding="UTF-8"?>
<svg version="1.1" xmlns="http://www.w3.org/2000/svg" width="220" height="229">
<path d="M0 0 C72.6 0 145.2 0 220 0 C220 75.57 220 151.14 220 229 C147.4 229 74.8 229 0 229 C0 153.43 0 77.86 0 0 Z " fill="#01B401" transform="translate(0,0)"/>
<path d="M0 0 C1.80078125 1.68359375 1.80078125 1.68359375 3 3 C1.45158425 6.34708051 -0.49105864 9.24667512 -2.625 12.25 C-3.25664063 13.14203125 -3.88828125 14.0340625 -4.5390625 14.953125 C-5.02117187 15.62859375 -5.50328125 16.3040625 -6 17 C-10.11308573 16.47100487 -13.14822634 15.59907336 -16.75 13.5625 C-24.03616248 9.78287149 -32.7610635 7.66353129 -41 9 C-43.70282655 10.25488375 -45.88080631 11.88080631 -48 14 C-48.75244501 16.8275989 -48.75244501 16.8275989 -48 20 C-42.62148386 24.99754572 -35.50168295 26.47575523 -28.5625 28.0625 C-14.99106539 31.23123915 -3.9875369 34.97966759 4 47 C6.78341852 52.56683704 5.81400438 63.76687619 3.9375 69.5 C-0.00297626 77.76405437 -6.47551469 82.95385428 -15 86 C-30.05612396 90.26837406 -46.39656767 89.4376576 -60.3515625 82.28125 C-68.81883025 77.5120968 -68.81883025 77.5120968 -72 74 C-70.61219205 70.10993227 -68.7847773 67.03441292 -66.375 63.6875 C-65.42753906 62.36298828 -65.42753906 62.36298828 -64.4609375 61.01171875 C-63.97882812 60.34785156 -63.49671875 59.68398437 -63 59 C-59.16180416 59.55023087 -56.84680154 60.5696033 -53.75 62.875 C-44.41129438 69.23326766 -35.07716995 70.08553931 -24 69 C-20.96086296 68.00867352 -19.49322483 67.0675523 -17 65 C-15.56264754 62.12529507 -15.61827351 60.18105412 -16 57 C-19.47456565 53.62251371 -22.6158938 52.24628429 -27.26171875 51.03515625 C-28.46376953 50.70966797 -29.66582031 50.38417969 -30.90429688 50.04882812 C-32.15275391 49.72333984 -33.40121094 49.39785156 -34.6875 49.0625 C-60.3988386 42.33467726 -60.3988386 42.33467726 -66.25 32.4375 C-69.95089159 25.16789152 -70.37942384 16.99284142 -68.19921875 9.1015625 C-64.46796324 0.76714298 -58.02203874 -3.92318056 -49.75 -7.375 C-33.01070497 -13.66591153 -14.60513229 -9.69367188 0 0 Z " fill="#FBFDFB" transform="translate(94,116)"/>
<path d="M0 0 C5.94 0 11.88 0 18 0 C18 75.57 18 151.14 18 229 C17.67 229 17.34 229 17 229 C17 164.32 17 99.64 17 33 C11.43012695 37.66311647 11.43012695 37.66311647 6.625 42.75 C3.99992275 45.83212195 1.33814583 48.86981417 -1.375 51.875 C-2.51195312 53.13570312 -2.51195312 53.13570312 -3.671875 54.421875 C-5.22395833 56.140625 -6.77604167 57.859375 -8.328125 59.578125 C-11.72344938 63.3430085 -15.11058342 67.11193551 -18.4375 70.9375 C-22.09057956 75.13303221 -25.84505549 79.23373553 -29.59375 83.34375 C-31.58648953 85.54352741 -33.5533814 87.75955218 -35.5 90 C-39.11675542 94.16268077 -42.83866727 98.22679577 -46.5546875 102.30078125 C-49.74948173 105.82730331 -52.88636249 109.40178976 -56 113 C-59.43597435 112.41502535 -61.09070492 111.28754103 -63.54345703 108.84472656 C-64.21740509 108.18023499 -64.89135315 107.51574341 -65.58572388 106.83111572 C-66.30251312 106.10825378 -67.01930237 105.38539185 -67.7578125 104.640625 C-68.50207489 103.89923279 -69.24633728 103.15784058 -70.01315308 102.39398193 C-71.58521552 100.82396083 -73.1534963 99.25014538 -74.71826172 97.67285156 C-77.11232947 95.26275536 -79.52192166 92.86902789 -81.93359375 90.4765625 C-83.45929595 88.94887743 -84.98406705 87.42026178 -86.5078125 85.890625 C-87.58906906 84.81847748 -87.58906906 84.81847748 -88.69216919 83.72467041 C-89.35981293 83.04757019 -90.02745667 82.37046997 -90.71533203 81.67285156 C-91.30283234 81.08296448 -91.89033264 80.49307739 -92.49563599 79.88531494 C-94.25314396 77.68275226 -95.17805804 75.69026981 -96 73 C-95.03369141 70.87182617 -95.03369141 70.87182617 -93.3515625 68.79296875 C-92.75859375 68.04208984 -92.165625 67.29121094 -91.5546875 66.51757812 C-90.91789062 65.74865234 -90.28109375 64.97972656 -89.625 64.1875 C-88.9959375 63.39923828 -88.366875 62.61097656 -87.71875 61.79882812 C-86.16151883 59.85228917 -84.58872854 57.92084816 -83 56 C-80.08557777 57.30634321 -78.12688938 58.65763537 -75.9765625 61.01171875 C-75.43 61.60533203 -74.8834375 62.19894531 -74.3203125 62.81054688 C-73.48113281 63.73963867 -73.48113281 63.73963867 -72.625 64.6875 C-72.07328125 65.28755859 -71.5215625 65.88761719 -70.953125 66.50585938 C-67.21113719 70.59481554 -63.58912779 74.77653996 -60 79 C-57.51041297 78.62157205 -56.26440634 78.27121436 -54.48291016 76.44384766 C-54.00644043 75.77401855 -53.5299707 75.10418945 -53.0390625 74.4140625 C-52.4925 73.65802734 -51.9459375 72.90199219 -51.3828125 72.12304688 C-50.51269531 70.88651367 -50.51269531 70.88651367 -49.625 69.625 C-48.3674689 67.87740164 -47.10964845 66.13001146 -45.8515625 64.3828125 C-45.2112207 63.48594727 -44.57087891 62.58908203 -43.91113281 61.66503906 C-40.9815533 57.57979507 -37.98997025 53.54112836 -35 49.5 C-33.83431877 47.91820205 -32.66895529 46.33616989 -31.50390625 44.75390625 C-29.15987983 41.57249389 -26.81329118 38.39299384 -24.46484375 35.21484375 C-20.96890218 30.48217365 -17.48113183 25.74357337 -14 21 C-13.38576172 20.16355957 -12.77152344 19.32711914 -12.13867188 18.46533203 C-10.31698963 15.98022693 -8.50130192 13.49086061 -6.6875 11 C-6.1298999 10.24001709 -5.5722998 9.48003418 -4.99780273 8.69702148 C-4.48677002 7.99262939 -3.9757373 7.2882373 -3.44921875 6.5625 C-2.77379028 5.63630859 -2.77379028 5.63630859 -2.0847168 4.69140625 C-0.82138314 2.87405346 -0.82138314 2.87405346 0 0 Z " fill="#F8FCF8" transform="translate(202,0)"/>
<path d="M0 0 C10.44058657 7.29091241 15.74338311 16.59749141 18 29 C18.24930263 32.09135267 18.20065098 34.88990974 18 38 C17 39 17 39 14.94358826 39.12025452 C14.03979935 39.11803391 13.13601044 39.11581329 12.20483398 39.11352539 C11.18385117 39.11344986 10.16286835 39.11337433 9.11094666 39.11329651 C8.0005452 39.10813522 6.89014374 39.10297394 5.74609375 39.09765625 C4.61551041 39.0962413 3.48492706 39.09482635 2.32008362 39.09336853 C-1.30747065 39.08775019 -4.93496424 39.07519458 -8.5625 39.0625 C-11.01497307 39.05748736 -13.4674471 39.05292405 -15.91992188 39.04882812 C-21.94663545 39.0377748 -27.97331339 39.02101884 -34 39 C-33.79503906 39.54269531 -33.59007812 40.08539063 -33.37890625 40.64453125 C-33.10949219 41.35996094 -32.84007812 42.07539063 -32.5625 42.8125 C-32.29566406 43.52019531 -32.02882812 44.22789062 -31.75390625 44.95703125 C-31.13774814 46.62672396 -30.56280765 48.31157704 -30 50 C-28.16715557 51.12516085 -28.16715557 51.12516085 -26 52 C-25.40960938 52.34160156 -24.81921875 52.68320313 -24.2109375 53.03515625 C-17.85448014 55.80908729 -10.27674014 54.3794175 -4 52.0625 C-2.700625 51.52302734 -2.700625 51.52302734 -1.375 50.97265625 C0.7470492 50.10359334 2.76513015 49.49146444 5 49 C6.19991599 50.5949008 7.38461318 52.20126147 8.5625 53.8125 C9.22378906 54.70582031 9.88507813 55.59914062 10.56640625 56.51953125 C11.03949219 57.33808594 11.51257813 58.15664062 12 59 C11 62 11 62 8.015625 63.7890625 C6.76554203 64.41144423 5.51004223 65.02303651 4.25 65.625 C3.62867188 65.93695313 3.00734375 66.24890625 2.3671875 66.5703125 C-7.0120728 71.16100531 -18.9464265 71.54490033 -29.12109375 69.31640625 C-38.80687798 65.67479315 -47.26119729 58.64828753 -51.8449707 49.27148438 C-54.08219595 43.94215377 -54.57849141 38.99477592 -54.5625 33.25 C-54.56080811 32.37327637 -54.55911621 31.49655273 -54.55737305 30.59326172 C-54.34700325 22.96225552 -52.38972994 17.30104776 -48 11 C-47.60554688 10.3915625 -47.21109375 9.783125 -46.8046875 9.15625 C-36.16322828 -5.42924655 -15.31785064 -7.78448147 0 0 Z " fill="#FAFDFA" transform="translate(163,134)"/>
<path d="M0 0 C3.12074797 2.20690344 5.17708167 4.19270418 6.625 7.8125 C6.625 9.4625 6.625 11.1125 6.625 12.8125 C-4.595 12.8125 -15.815 12.8125 -27.375 12.8125 C-26.22801562 7.07757811 -24.6742834 3.47948046 -19.875 0 C-13.39849662 -3.0763391 -6.30579113 -3.71134201 0 0 Z " fill="#03B403" transform="translate(155.375,147.1875)"/>
</svg>
